HIERARCHY
ROOT RootJoint
{
    OFFSET   0.000000   0.000000   0.000000
    CHANNELS 6 Xposition Yposition Zposition Xrotation Yrotation Zrotation
    JOINT pelvis_lowerback
    {
        OFFSET   0.000000   0.093605   0.000000
        CHANNELS 3 Xrotation Yrotation Zrotation
        JOINT lowerback_torso
        {
            OFFSET   0.000000   0.100000   0.000000
            CHANNELS 3 Xrotation Yrotation Zrotation
            JOINT torso_head
            {
                OFFSET   0.000000   0.282350   0.000000
                CHANNELS 3 Xrotation Yrotation Zrotation
                End Site
                {
                    OFFSET   0.000000   0.192650   0.000000
                }
            }
            JOINT rTorso_Clavicle
            {
                OFFSET  -0.001000   0.157500   0.000000
                CHANNELS 3 Xrotation Yrotation Zrotation
                JOINT rShoulder
                {
                    OFFSET  -0.117647   0.000000   0.000000
                    CHANNELS 3 Xrotation Yrotation Zrotation
                    JOINT rElbow
                    {
                        OFFSET  -0.245000   0.000000   0.000000
                        CHANNELS 3 Xrotation Yrotation Zrotation
                        JOINT rWrist
                        {
                            OFFSET  -0.240000   0.000000   0.000000
                            CHANNELS 3 Xrotation Yrotation Zrotation
                            End Site
                            {
                                OFFSET  -0.116353  -0.002500   0.000000
                            }
                        }
                    }
                }
            }
            JOINT lTorso_Clavicle
            {
                OFFSET   0.001000   0.157500   0.000000
                CHANNELS 3 Xrotation Yrotation Zrotation
                JOINT lShoulder
                {
                    OFFSET   0.117647   0.000000   0.000000
                    CHANNELS 3 Xrotation Yrotation Zrotation
                    JOINT lElbow
                    {
                        OFFSET   0.245000   0.000000   0.000000
                        CHANNELS 3 Xrotation Yrotation Zrotation
                        JOINT lWrist
                        {
                            OFFSET   0.240000   0.000000   0.000000
                            CHANNELS 3 Xrotation Yrotation Zrotation
                            End Site
                            {
                                OFFSET   0.116353  -0.002500   0.000000
                            }
                        }
                    }
                }
            }
        }
    }
    JOINT rHip
    {
        OFFSET  -0.100000  -0.051395   0.000000
        CHANNELS 3 Xrotation Yrotation Zrotation
        JOINT rKnee
        {
            OFFSET   0.000000  -0.410000   0.000000
            CHANNELS 3 Xrotation Yrotation Zrotation
            JOINT rAnkle
            {
                OFFSET   0.000000  -0.390000   0.000000
                CHANNELS 3 Xrotation Yrotation Zrotation
                JOINT rToeJoint
                {
                    OFFSET   0.000000  -0.050000   0.130000
                    CHANNELS 3 Xrotation Yrotation Zrotation
                    End Site
                    {
                        OFFSET  -0.010000   0.002000   0.060000
                    }
                }
            }
        }
    }
    JOINT lHip
    {
        OFFSET   0.100000  -0.051395   0.000000
        CHANNELS 3 Xrotation Yrotation Zrotation
        JOINT lKnee
        {
            OFFSET   0.000000  -0.410000   0.000000
            CHANNELS 3 Xrotation Yrotation Zrotation
            JOINT lAnkle
            {
                OFFSET   0.000000  -0.390000   0.000000
                CHANNELS 3 Xrotation Yrotation Zrotation
                JOINT lToeJoint
                {
                    OFFSET   0.000000  -0.050000   0.130000
                    CHANNELS 3 Xrotation Yrotation Zrotation
                    End Site
                    {
                        OFFSET   0.010000   0.002000   0.060000
                    }
                }
            }
        }
    }
}
MOTION
Frames: 5
Frame Time:   0.008333
 -2.352534   0.913671   4.051648  -9.950623   0.404130  -1.043730  11.084917  -5.250198   1.466061  -1.557910  -3.607027   1.746226   3.352708  -1.194578   0.983870  -6.533845  -4.285241  -9.497575 -16.754289   0.965752  18.152137  60.767300  89.954272 -60.757168   0.757370   5.388123   0.122505  -6.135764  -0.383764   8.306164 -22.012726  -1.585947 -18.092741   0.809369 -86.792129   0.805943  -1.667000  -6.298669   4.496363 -25.526859  -4.684119 -13.408093  71.204486  -0.001029  -0.007450  -1.438895  -7.704596   5.809362  -1.890854  -0.000094  -0.000532  10.450094   3.911755   0.377121  12.554872  -0.000132   0.000176 -13.627341   7.772079   5.718090   0.270839   0.000020   0.000117
 -2.353830   0.913551   4.052028  -9.992988   0.471978  -0.984630  11.166082  -5.266441   1.501772  -1.448117  -3.586979   1.706378   3.346816  -1.224436   0.935817  -6.339351  -4.266480  -9.683837 -15.701734   1.092301  18.285252 177.584806  88.924111 -177.576024   0.742676   5.322853   0.279960  -5.861905  -0.370571   8.338576 -20.800184  -1.640348 -18.042890   1.444210 -87.935295   1.442141  -1.627027  -6.257887   4.419825 -24.957395  -4.699535 -13.182010  70.075609  -0.001138  -0.008900  -1.512684  -7.687995   5.726234  -1.979996  -0.000089  -0.000723  10.458735   3.851717   0.421235  12.659644  -0.000180   0.000174 -13.665058   7.784122   5.650565   0.257690   0.000019   0.000091
 -2.355223   0.913405   4.052333 -10.025580   0.520973  -0.914546  11.240720  -5.275523   1.516054  -1.323518  -3.561112   1.661922   3.336997  -1.254207   0.892235  -6.127651  -4.236356  -9.870160 -14.692744   1.237751  18.411980 178.674650  87.876951 -178.666974   0.729230   5.365004   0.653539  -5.570182  -0.358903   8.376674 -19.633469  -1.704818 -18.001431   3.315879 -89.020915   3.314442  -1.578142  -6.303349   4.094613 -24.396166  -4.705487 -12.959228  68.917141  -0.001033  -0.010088  -1.585164  -7.671884   5.648122  -2.058993  -0.000065  -0.000839  10.450990   3.799243   0.456202  12.770277  -0.000228   0.000167 -13.704422   7.799720   5.591244   0.246513   0.000019   0.000070
 -2.356707   0.913228   4.052557 -10.047100   0.572098  -0.829989  11.319625  -5.285078   1.515289  -1.196255  -3.536379   1.609112   3.326589  -1.282319   0.851090  -5.923963  -4.199496 -10.045040 -13.747307   1.385135  18.530313 179.060598  86.894178 -179.053775   0.715865   5.447065   1.083088  -5.289039  -0.354896   8.407307 -18.537086  -1.770466 -17.967542 123.952136 -89.929075 123.950763  -1.529555  -6.372497   3.696818 -23.864185  -4.711344 -12.753797  67.807538  -0.000796  -0.010868  -1.653851  -7.656688   5.575240  -2.131044  -0.000038  -0.000901  10.428009   3.768846   0.479038  12.877662  -0.000260   0.000185 -13.744524   7.832901   5.531449   0.246248   0.000015   0.000056
 -2.358285   0.913022   4.052713 -10.057331   0.625203  -0.735842  11.403395  -5.293410   1.504898  -1.068778  -3.512807   1.550116   3.316910  -1.308593   0.811947  -5.732259  -4.160171 -10.208753 -12.864779   1.529169  18.639432 179.271516  85.975108 -179.265379   0.702283   5.540414   1.514569  -5.022885  -0.355440   8.430531 -17.510863  -1.833956 -17.939161 176.579076 -89.008892 176.577460  -1.483365  -6.444202   3.286579 -23.365414  -4.716528 -12.560340  66.765679  -0.000492  -0.011291  -1.718176  -7.642431   5.507259  -2.196901  -0.000012  -0.000926  10.394159   3.743890   0.497356  12.974069  -0.000280   0.000204 -13.788730   7.865998   5.475914   0.267983   0.000004   0.000060
